<mxfile host="app.diagrams.net" modified="2021-11-23T02:44:18.863Z" agent="5.0 (Macintosh; Intel Mac OS X 10_15_7) AppleWebKit/537.36 (KHTML, like Gecko) Chrome/96.0.4664.55 Safari/537.36" etag="HAliCQrTtJ5CgMphBoFA" version="14.9.3" type="github">
  <diagram id="9k3yhEbFu_1CZcW9YBHv" name="第 1 页">
    <mxGraphModel dx="570" dy="318" grid="1" gridSize="10" guides="1" tooltips="1" connect="1" arrows="1" fold="1" page="1" pageScale="1" pageWidth="827" pageHeight="1169" math="0" shadow="0">
      <root>
        <mxCell id="0" />
        <mxCell id="1" parent="0" />
        <mxCell id="lCiSDCw6pnVLolVEOz2V-1" value="第一代" style="rounded=0;whiteSpace=wrap;html=1;align=left;verticalAlign=top;" vertex="1" parent="1">
          <mxGeometry x="80" y="300" width="80" height="300" as="geometry" />
        </mxCell>
        <mxCell id="lCiSDCw6pnVLolVEOz2V-2" value="P1" style="ellipse;whiteSpace=wrap;html=1;aspect=fixed;" vertex="1" parent="1">
          <mxGeometry x="95" y="330" width="50" height="50" as="geometry" />
        </mxCell>
        <mxCell id="lCiSDCw6pnVLolVEOz2V-3" value="P2" style="ellipse;whiteSpace=wrap;html=1;aspect=fixed;" vertex="1" parent="1">
          <mxGeometry x="95" y="390" width="50" height="50" as="geometry" />
        </mxCell>
        <mxCell id="lCiSDCw6pnVLolVEOz2V-4" value="P3" style="ellipse;whiteSpace=wrap;html=1;aspect=fixed;" vertex="1" parent="1">
          <mxGeometry x="95" y="450" width="50" height="50" as="geometry" />
        </mxCell>
        <mxCell id="lCiSDCw6pnVLolVEOz2V-5" value="P4" style="ellipse;whiteSpace=wrap;html=1;aspect=fixed;" vertex="1" parent="1">
          <mxGeometry x="95" y="510" width="50" height="50" as="geometry" />
        </mxCell>
      </root>
    </mxGraphModel>
  </diagram>
</mxfile>
